# xmcd
#
# Track frame offsets:
#   150
#   15568
#   25823
#   38883
#   55165
#   67948
#   82985
#   96118
#   106268
#   118350
#   132675
#   146908
#
# Disc length: 2113 seconds
#
# Revision: 0
# Processed by: cddbd v1.5.2PL0 Copyright (c) Steve Scherf et al.
# Submitted via: uFREEDB ActiveX Control 1.5
#
DISCID=a4083f0c
DTITLE=Jair Rodrigues - Os Grandes da MPB V040
DYEAR=1998
DGENRE=Latin
TTITLE0=Chão de Estrelas
TTITLE1=Deixa Isso pra Lá
TTITLE2=Bloco da Solidão
TTITLE3=Mundo Velho
TTITLE4=Mascara Negra
TTITLE5=O Conde
TTITLE6=Leva Meu Samba
TTITLE7=A Rita
TTITLE8=Martin Cerer
TTITLE9=O Mundo Melhor de Pixinguinha
TTITLE10=Triste Madrugada
TTITLE11=Vou de Samba com Você
EXTD=
EXTT0=
EXTT1=
EXTT2=
EXTT3=
EXTT4=
EXTT5=
EXTT6=
EXTT7=
EXTT8=
EXTT9=
EXTT10=
EXTT11=
PLAYORDER=
